<svg id="visual" viewBox="0 0 1920 1080" width="1920" height="1080" xmlns="http://www.w3.org/2000/svg" xmlns:xlink="http://www.w3.org/1999/xlink" version="1.1"><rect x="0" y="0" width="1920" height="1080" fill="#ffffff"></rect><path d="M0 654L14.5 657.3C29 660.7 58 667.3 87.2 683C116.3 698.7 145.7 723.3 174.8 743.7C204 764 233 780 262 777.5C291 775 320 754 349 733C378 712 407 691 436.2 678.8C465.3 666.7 494.7 663.3 523.8 669C553 674.7 582 689.3 611 688.5C640 687.7 669 671.3 698 677.2C727 683 756 711 785.2 739C814.3 767 843.7 795 872.8 783C902 771 931 719 960 706.7C989 694.3 1018 721.7 1047.2 726.3C1076.3 731 1105.7 713 1134.8 707.2C1164 701.3 1193 707.7 1222 724.8C1251 742 1280 770 1309 762.8C1338 755.7 1367 713.3 1396.2 704.7C1425.3 696 1454.7 721 1483.8 743.7C1513 766.3 1542 786.7 1571 783C1600 779.3 1629 751.7 1658 755.5C1687 759.3 1716 794.7 1745.2 796C1774.3 797.3 1803.7 764.7 1832.8 739.3C1862 714 1891 696 1905.5 687L1920 678L1920 1081L1905.5 1081C1891 1081 1862 1081 1832.8 1081C1803.7 1081 1774.3 1081 1745.2 1081C1716 1081 1687 1081 1658 1081C1629 1081 1600 1081 1571 1081C1542 1081 1513 1081 1483.8 1081C1454.7 1081 1425.3 1081 1396.2 1081C1367 1081 1338 1081 1309 1081C1280 1081 1251 1081 1222 1081C1193 1081 1164 1081 1134.8 1081C1105.7 1081 1076.3 1081 1047.2 1081C1018 1081 989 1081 960 1081C931 1081 902 1081 872.8 1081C843.7 1081 814.3 1081 785.2 1081C756 1081 727 1081 698 1081C669 1081 640 1081 611 1081C582 1081 553 1081 523.8 1081C494.7 1081 465.3 1081 436.2 1081C407 1081 378 1081 349 1081C320 1081 291 1081 262 1081C233 1081 204 1081 174.8 1081C145.7 1081 116.3 1081 87.2 1081C58 1081 29 1081 14.5 1081L0 1081Z" fill="#fdfdfd"></path><path d="M0 746L14.5 749.3C29 752.7 58 759.3 87.2 758.7C116.3 758 145.7 750 174.8 747C204 744 233 746 262 751C291 756 320 764 349 778.5C378 793 407 814 436.2 828.2C465.3 842.3 494.7 849.7 523.8 857.2C553 864.7 582 872.3 611 873.8C640 875.3 669 870.7 698 852.2C727 833.7 756 801.3 785.2 802.5C814.3 803.7 843.7 838.3 872.8 846.5C902 854.7 931 836.3 960 814.3C989 792.3 1018 766.7 1047.2 768.5C1076.3 770.3 1105.7 799.7 1134.8 807.8C1164 816 1193 803 1222 794.5C1251 786 1280 782 1309 774.3C1338 766.7 1367 755.3 1396.2 775C1425.3 794.7 1454.7 845.3 1483.8 846.2C1513 847 1542 798 1571 786.3C1600 774.7 1629 800.3 1658 802.8C1687 805.3 1716 784.7 1745.2 790C1774.3 795.3 1803.7 826.7 1832.8 845.3C1862 864 1891 870 1905.5 873L1920 876L1920 1081L1905.5 1081C1891 1081 1862 1081 1832.8 1081C1803.7 1081 1774.3 1081 1745.2 1081C1716 1081 1687 1081 1658 1081C1629 1081 1600 1081 1571 1081C1542 1081 1513 1081 1483.8 1081C1454.7 1081 1425.3 1081 1396.2 1081C1367 1081 1338 1081 1309 1081C1280 1081 1251 1081 1222 1081C1193 1081 1164 1081 1134.8 1081C1105.7 1081 1076.3 1081 1047.2 1081C1018 1081 989 1081 960 1081C931 1081 902 1081 872.8 1081C843.7 1081 814.3 1081 785.2 1081C756 1081 727 1081 698 1081C669 1081 640 1081 611 1081C582 1081 553 1081 523.8 1081C494.7 1081 465.3 1081 436.2 1081C407 1081 378 1081 349 1081C320 1081 291 1081 262 1081C233 1081 204 1081 174.8 1081C145.7 1081 116.3 1081 87.2 1081C58 1081 29 1081 14.5 1081L0 1081Z" fill="#decbfb"></path><path d="M0 841L14.5 842.2C29 843.3 58 845.7 87.2 856.2C116.3 866.7 145.7 885.3 174.8 900.8C204 916.3 233 928.7 262 936C291 943.3 320 945.7 349 933.8C378 922 407 896 436.2 896C465.3 896 494.7 922 523.8 915.8C553 909.7 582 871.3 611 858C640 844.7 669 856.3 698 855.7C727 855 756 842 785.2 850.7C814.3 859.3 843.7 889.7 872.8 886.5C902 883.3 931 846.7 960 828.7C989 810.7 1018 811.3 1047.2 828.3C1076.3 845.3 1105.7 878.7 1134.8 891.7C1164 904.7 1193 897.3 1222 878.7C1251 860 1280 830 1309 814.5C1338 799 1367 798 1396.2 812C1425.3 826 1454.7 855 1483.8 874.2C1513 893.3 1542 902.7 1571 903.7C1600 904.7 1629 897.3 1658 894C1687 890.7 1716 891.3 1745.2 881.8C1774.3 872.3 1803.7 852.7 1832.8 854.7C1862 856.7 1891 880.3 1905.5 892.2L1920 904L1920 1081L1905.5 1081C1891 1081 1862 1081 1832.8 1081C1803.7 1081 1774.3 1081 1745.2 1081C1716 1081 1687 1081 1658 1081C1629 1081 1600 1081 1571 1081C1542 1081 1513 1081 1483.8 1081C1454.7 1081 1425.3 1081 1396.2 1081C1367 1081 1338 1081 1309 1081C1280 1081 1251 1081 1222 1081C1193 1081 1164 1081 1134.8 1081C1105.7 1081 1076.3 1081 1047.2 1081C1018 1081 989 1081 960 1081C931 1081 902 1081 872.8 1081C843.7 1081 814.3 1081 785.2 1081C756 1081 727 1081 698 1081C669 1081 640 1081 611 1081C582 1081 553 1081 523.8 1081C494.7 1081 465.3 1081 436.2 1081C407 1081 378 1081 349 1081C320 1081 291 1081 262 1081C233 1081 204 1081 174.8 1081C145.7 1081 116.3 1081 87.2 1081C58 1081 29 1081 14.5 1081L0 1081Z" fill="#bb9bf8"></path><path d="M0 912L14.5 912.2C29 912.3 58 912.7 87.2 920.2C116.3 927.7 145.7 942.3 174.8 952.3C204 962.3 233 967.7 262 966.8C291 966 320 959 349 955.7C378 952.3 407 952.7 436.2 954.2C465.3 955.7 494.7 958.3 523.8 958C553 957.7 582 954.3 611 949.2C640 944 669 937 698 938.2C727 939.3 756 948.7 785.2 949.5C814.3 950.3 843.7 942.7 872.8 944.2C902 945.7 931 956.3 960 946.3C989 936.3 1018 905.7 1047.2 891.5C1076.3 877.3 1105.7 879.7 1134.8 882.5C1164 885.3 1193 888.7 1222 905.3C1251 922 1280 952 1309 950.2C1338 948.3 1367 914.7 1396.2 897.7C1425.3 880.7 1454.7 880.3 1483.8 898.7C1513 917 1542 954 1571 972.3C1600 990.7 1629 990.3 1658 989.3C1687 988.3 1716 986.7 1745.2 971.8C1774.3 957 1803.7 929 1832.8 929.7C1862 930.3 1891 959.7 1905.5 974.3L1920 989L1920 1081L1905.5 1081C1891 1081 1862 1081 1832.8 1081C1803.7 1081 1774.3 1081 1745.2 1081C1716 1081 1687 1081 1658 1081C1629 1081 1600 1081 1571 1081C1542 1081 1513 1081 1483.8 1081C1454.7 1081 1425.3 1081 1396.2 1081C1367 1081 1338 1081 1309 1081C1280 1081 1251 1081 1222 1081C1193 1081 1164 1081 1134.8 1081C1105.7 1081 1076.3 1081 1047.2 1081C1018 1081 989 1081 960 1081C931 1081 902 1081 872.8 1081C843.7 1081 814.3 1081 785.2 1081C756 1081 727 1081 698 1081C669 1081 640 1081 611 1081C582 1081 553 1081 523.8 1081C494.7 1081 465.3 1081 436.2 1081C407 1081 378 1081 349 1081C320 1081 291 1081 262 1081C233 1081 204 1081 174.8 1081C145.7 1081 116.3 1081 87.2 1081C58 1081 29 1081 14.5 1081L0 1081Z" fill="#936bf3"></path><path d="M0 990L14.5 984C29 978 58 966 87.2 964.7C116.3 963.3 145.7 972.7 174.8 976C204 979.3 233 976.7 262 984.7C291 992.7 320 1011.3 349 1006.8C378 1002.3 407 974.7 436.2 963.7C465.3 952.7 494.7 958.3 523.8 972C553 985.7 582 1007.3 611 1005.2C640 1003 669 977 698 968.3C727 959.7 756 968.3 785.2 970.8C814.3 973.3 843.7 969.7 872.8 974C902 978.3 931 990.7 960 991.7C989 992.7 1018 982.3 1047.2 974.3C1076.3 966.3 1105.7 960.7 1134.8 960C1164 959.3 1193 963.7 1222 966.2C1251 968.7 1280 969.3 1309 970C1338 970.7 1367 971.3 1396.2 969.8C1425.3 968.3 1454.7 964.7 1483.8 961.2C1513 957.7 1542 954.3 1571 959.8C1600 965.3 1629 979.7 1658 993C1687 1006.3 1716 1018.7 1745.2 1011.7C1774.3 1004.7 1803.7 978.3 1832.8 964.2C1862 950 1891 948 1905.5 947L1920 946L1920 1081L1905.5 1081C1891 1081 1862 1081 1832.8 1081C1803.7 1081 1774.3 1081 1745.2 1081C1716 1081 1687 1081 1658 1081C1629 1081 1600 1081 1571 1081C1542 1081 1513 1081 1483.8 1081C1454.7 1081 1425.3 1081 1396.2 1081C1367 1081 1338 1081 1309 1081C1280 1081 1251 1081 1222 1081C1193 1081 1164 1081 1134.8 1081C1105.7 1081 1076.3 1081 1047.2 1081C1018 1081 989 1081 960 1081C931 1081 902 1081 872.8 1081C843.7 1081 814.3 1081 785.2 1081C756 1081 727 1081 698 1081C669 1081 640 1081 611 1081C582 1081 553 1081 523.8 1081C494.7 1081 465.3 1081 436.2 1081C407 1081 378 1081 349 1081C320 1081 291 1081 262 1081C233 1081 204 1081 174.8 1081C145.7 1081 116.3 1081 87.2 1081C58 1081 29 1081 14.5 1081L0 1081Z" fill="#5e3aee"></path></svg>