<svg id="visual" viewBox="0 0 1920 1080" width="1920" height="1080" xmlns="http://www.w3.org/2000/svg" xmlns:xlink="http://www.w3.org/1999/xlink" version="1.1"><rect x="0" y="0" width="1920" height="1080" fill="#ffffff"></rect><defs><linearGradient id="grad1_0" x1="43.8%" y1="100%" x2="100%" y2="0%"><stop offset="14.444444444444446%" stop-color="#ffffff" stop-opacity="1"></stop><stop offset="85.55555555555554%" stop-color="#ffffff" stop-opacity="1"></stop></linearGradient></defs><defs><linearGradient id="grad2_0" x1="0%" y1="100%" x2="56.3%" y2="0%"><stop offset="14.444444444444446%" stop-color="#ffffff" stop-opacity="1"></stop><stop offset="85.55555555555554%" stop-color="#ffffff" stop-opacity="1"></stop></linearGradient></defs><g transform="translate(1920, 1080)"><path d="M-432 0C-397.4 -49.9 -362.7 -99.8 -330.7 -137C-298.8 -174.2 -269.4 -198.5 -246.1 -246.1C-222.7 -293.6 -205.3 -364.3 -165.3 -399.1C-125.3 -434 -62.7 -433 0 -432L0 0Z" fill="#000000"></path></g><g transform="translate(0, 0)"><path d="M432 0C432.2 61.7 432.3 123.4 399.1 165.3C365.9 207.3 299.3 229.5 251 251C202.7 272.5 172.7 293.3 133.9 323.4C95.2 353.4 47.6 392.7 0 432L0 0Z" fill="#000000"></path></g></svg>