<svg id="visual" viewBox="0 0 1920 1080" width="1920" height="1080" xmlns="http://www.w3.org/2000/svg" xmlns:xlink="http://www.w3.org/1999/xlink" version="1.1"><rect x="0" y="0" width="1920" height="1080" fill="#ffffff"></rect><defs><linearGradient id="grad1_0" x1="43.8%" y1="0%" x2="100%" y2="100%"><stop offset="14.444444444444446%" stop-color="#ffffff" stop-opacity="1"></stop><stop offset="85.55555555555554%" stop-color="#ffffff" stop-opacity="1"></stop></linearGradient></defs><defs><linearGradient id="grad2_0" x1="0%" y1="0%" x2="56.3%" y2="100%"><stop offset="14.444444444444446%" stop-color="#ffffff" stop-opacity="1"></stop><stop offset="85.55555555555554%" stop-color="#ffffff" stop-opacity="1"></stop></linearGradient></defs><g transform="translate(1920, 0)"><path d="M0 378C-34 334.2 -68.1 290.4 -114.8 277.2C-161.5 263.9 -220.9 281.1 -263.8 263.8C-306.6 246.4 -332.9 194.4 -349.2 144.7C-365.5 94.9 -371.8 47.5 -378 0L0 0Z" fill="#000000"></path></g><g transform="translate(0, 1080)"><path d="M0 -378C38.5 -333.2 77.1 -288.4 107.5 -259.6C138 -230.8 160.4 -218 205.1 -205.1C249.7 -192.1 316.7 -178.9 349.2 -144.7C381.8 -110.4 379.9 -55.2 378 0L0 0Z" fill="#000000"></path></g></svg>